<svg xmlns="http://www.w3.org/2000/svg" width="216" height="216" viewBox="0 0 216 216">
  <g id="cv" transform="translate(-925 1352)">
    <circle id="Ellipse_1103" data-name="Ellipse 1103" cx="108" cy="108" r="108" transform="translate(925 -1352)" fill="#f7c152"/>
    <g id="cv-2" data-name="cv" transform="translate(953.8 -1287)">
      <path id="Path_578" data-name="Path 578" d="M142.468,94.267H152.3V104.1h-9.836Z" transform="translate(-80.303 -80.302)" fill="#fff"/>
      <path id="Path_579" data-name="Path 579" d="M339,26.526h14.011L335.267,8.787V22.8A3.732,3.732,0,0,0,339,26.526Z" transform="translate(-244.54 -7.485)" fill="#fff"/>
      <path id="Path_580" data-name="Path 580" d="M94.455,23.485a8.182,8.182,0,0,1-8.172-8.172V0H56.373A8.182,8.182,0,0,0,48.2,8.173v59.5a8.182,8.182,0,0,0,8.172,8.173H101.6a8.182,8.182,0,0,0,8.172-8.173V23.485ZM57.721,11.743a2.222,2.222,0,0,1,2.222-2.222H74.224a2.222,2.222,0,0,1,2.222,2.222V26.024a2.222,2.222,0,0,1-2.222,2.222H59.943a2.222,2.222,0,0,1-2.222-2.222Zm2.222,21.579H88.5a2.222,2.222,0,0,1,0,4.444H59.943a2.222,2.222,0,1,1,0-4.444ZM98.025,66.328H59.943a2.222,2.222,0,0,1,0-4.444H98.025a2.222,2.222,0,0,1,0,4.444Zm0-9.52H59.943a2.222,2.222,0,0,1,0-4.444H98.025a2.222,2.222,0,0,1,0,4.444Zm0-9.521H59.943a2.222,2.222,0,0,1,0-4.444H98.025a2.222,2.222,0,0,1,0,4.444Z" fill="#fff"/>
    </g>
  </g>
</svg>
