<svg xmlns="http://www.w3.org/2000/svg" width="216" height="216" viewBox="0 0 216 216">
  <g id="instagram" transform="translate(-600 1352)">
    <circle id="Ellipse_1102" data-name="Ellipse 1102" cx="108" cy="108" r="108" transform="translate(600 -1352)" fill="#f7c152"/>
    <path id="Icon_zocial-instagram" data-name="Icon zocial-instagram" d="M6.423,71.748a8.541,8.541,0,0,1-3.931-2.232A7.9,7.9,0,0,1,.316,65.768C.063,64.771.049,63.83.049,36.1.035,4.951-.007,6.664.807,4.909A8.38,8.38,0,0,1,4.893.851C6.7.051,4.935.093,36.326.135l28.92.028.9.309a8.515,8.515,0,0,1,5.391,5.391l.309.9.028,28.92c.042,32.121.112,29.721-.913,31.8a8.34,8.34,0,0,1-3.552,3.552c-2.05,1.011.281.941-31.5.927C11.6,71.945,7.139,71.917,6.423,71.748ZM62.382,63.2c1.151-.814,1.179-.9,1.221-6.247.042-5.208.014-5.475-.842-6.3-.772-.758-1.137-.8-6.219-.786l-4.633.014-.632.337a3.452,3.452,0,0,0-1.039.983l-.421.618L49.8,56.46c-.014,2.541.042,4.857.112,5.124a2.622,2.622,0,0,0,1.432,1.769l.7.351,4.872-.042,4.857-.042ZM38.769,49.567a13.934,13.934,0,0,0,10.754-10.81,17.15,17.15,0,0,0,.154-4.563,14.14,14.14,0,0,0-7.2-10.333,15.065,15.065,0,0,0-3.706-1.376c-.267-.028-.828-.112-1.249-.183A13.869,13.869,0,0,0,25,27.666a13.735,13.735,0,0,0,.267,17.057,14,14,0,0,0,9.266,5.04A14.652,14.652,0,0,0,38.769,49.567ZM14.327,40.455a22.279,22.279,0,0,1,1.853-14.25,20.652,20.652,0,0,1,4.2-5.77A21.9,21.9,0,0,1,39.485,14.2,22.24,22.24,0,0,1,57.37,30.488a21.8,21.8,0,0,1,.576,7.862,15.458,15.458,0,0,1-.576,3.032c-.042.07-.028.126.042.14.533.056,5.995.042,6.093-.028.084-.042.112-6.275.1-15.668l-.042-15.6-.421-.6A3.507,3.507,0,0,0,62.087,8.7l-.632-.323-25.635.042L10.2,8.447l-.576.379a3.693,3.693,0,0,0-.9.913l-.337.533L8.346,25.785c-.014,8.536-.014,15.569.028,15.653a15.107,15.107,0,0,0,3.131.14H14.58Z" transform="translate(671.956 -1283.117)" fill="#fff"/>
  </g>
</svg>
