<svg xmlns="http://www.w3.org/2000/svg" width="216" height="216" viewBox="0 0 216 216">
  <g id="linkedin" transform="translate(50 1349)">
    <circle id="Ellipse_1100" data-name="Ellipse 1100" cx="108" cy="108" r="108" transform="translate(-50 -1349)" fill="#f7c152"/>
    <path id="Icon_ionic-logo-linkedin" data-name="Icon ionic-logo-linkedin" d="M71.105,4.5H10.685C7.385,4.5,4.5,6.876,4.5,10.138V70.691a6.37,6.37,0,0,0,6.185,6.2h60.4a6.047,6.047,0,0,0,5.808-6.2V10.138A5.551,5.551,0,0,0,71.105,4.5ZM26.941,64.845H16.569V32.6H26.941Zm-4.828-37.15h-.075a5.323,5.323,0,0,1-5.469-5.563,5.356,5.356,0,0,1,5.6-5.563,5.342,5.342,0,0,1,5.544,5.563A5.356,5.356,0,0,1,22.113,27.695Zm42.732,37.15H54.473V47.213c0-4.224-1.509-7.109-5.261-7.109a5.675,5.675,0,0,0-5.318,3.828,6.983,6.983,0,0,0-.358,2.546V64.845H33.164V32.6H43.535v4.488c1.509-2.15,3.866-5.242,9.353-5.242,6.808,0,11.956,4.488,11.956,14.162V64.845Z" transform="translate(17.5 -1280.07)" fill="#fff"/>
  </g>
</svg>
