<svg xmlns="http://www.w3.org/2000/svg" xmlns:xlink="http://www.w3.org/1999/xlink" width="375" height="351" viewBox="0 0 375 351">
  <defs>
    <clipPath id="clip-project3">
      <rect width="375" height="351"/>
    </clipPath>
  </defs>
  <g id="project3" clip-path="url(#clip-project3)">
    <rect width="375" height="351" fill="#fff"/>
    <g id="Group_86" data-name="Group 86" transform="translate(23.102 -499)">
      <g id="Group_71" data-name="Group 71" transform="translate(87.843 744.582)">
        <path id="Path_149" data-name="Path 149" d="M139.764,776.508a6.612,6.612,0,0,1-2.644-2.469,7.221,7.221,0,0,1,0-7.169,6.618,6.618,0,0,1,2.644-2.469,8.627,8.627,0,0,1,7.632,0,6.642,6.642,0,0,1,2.632,2.469,7.221,7.221,0,0,1,0,7.169,6.636,6.636,0,0,1-2.632,2.469,8.629,8.629,0,0,1-7.632,0Zm6.291-3.333a4.315,4.315,0,0,0,0-5.439,3.257,3.257,0,0,0-2.469-1.015,3.3,3.3,0,0,0-2.481,1.015,4.272,4.272,0,0,0,0,5.439,3.3,3.3,0,0,0,2.481,1.015A3.258,3.258,0,0,0,146.055,773.175Z" transform="translate(-136.167 -758.599)" fill="#fff"/>
        <path id="Path_150" data-name="Path 150" d="M209.414,751.846a6.215,6.215,0,0,1,2.419,2.431,8.021,8.021,0,0,1,0,7.294A6.213,6.213,0,0,1,209.414,764a6.872,6.872,0,0,1-3.421.865,5.3,5.3,0,0,1-4-1.487.14.14,0,0,0-.239.1v.427a.76.76,0,0,1-.76.76h-1a1.971,1.971,0,0,1-1.971-1.971V746.828a.76.76,0,0,1,.76-.76h1.178a1.971,1.971,0,0,1,1.971,1.971v4.225a.14.14,0,0,0,.235.1,5.289,5.289,0,0,1,3.825-1.387A6.873,6.873,0,0,1,209.414,751.846Zm-1.629,8.8a4.314,4.314,0,0,0,0-5.439,3.51,3.51,0,0,0-4.938,0,4.316,4.316,0,0,0,0,5.439,3.51,3.51,0,0,0,4.938,0Z" transform="translate(-180.602 -746.068)" fill="#fff"/>
        <path id="Path_151" data-name="Path 151" d="M270.824,751.846a6.213,6.213,0,0,1,2.419,2.431,8.021,8.021,0,0,1,0,7.294A6.211,6.211,0,0,1,270.824,764a6.872,6.872,0,0,1-3.421.865,5.3,5.3,0,0,1-4-1.487.14.14,0,0,0-.239.1v.427a.76.76,0,0,1-.76.76h-1a1.971,1.971,0,0,1-1.971-1.971V746.828a.76.76,0,0,1,.76-.76h1.178a1.971,1.971,0,0,1,1.971,1.971v4.225a.14.14,0,0,0,.235.1,5.288,5.288,0,0,1,3.825-1.387A6.872,6.872,0,0,1,270.824,751.846Zm-1.629,8.8a4.315,4.315,0,0,0,0-5.439,3.51,3.51,0,0,0-4.938,0,4.316,4.316,0,0,0,0,5.439,3.511,3.511,0,0,0,4.938,0Z" transform="translate(-224.718 -746.068)" fill="#fff"/>
        <g id="Group_70" data-name="Group 70" transform="translate(50.117 5.113)">
          <path id="Path_152" data-name="Path 152" d="M327.532,764.225a.986.986,0,0,1,.907,1.372l-5.507,12.94a7.045,7.045,0,0,1-2.293,3.284,5.62,5.62,0,0,1-3.3.952,6.864,6.864,0,0,1-2.08-.326,1.636,1.636,0,0,1-.959-2.306l.314-.611a.753.753,0,0,1,1.02-.33,3.554,3.554,0,0,0,.414.189,3.232,3.232,0,0,0,1.165.226,2.067,2.067,0,0,0,1.3-.389,3.3,3.3,0,0,0,.9-1.291l.024-.059c.012-.031.032-.056.014-.1l-.007-.017-.019-.044-.025-.058-.031-.071-.036-.084-.041-.1-.047-.109-.052-.12-.057-.132-.061-.142-.065-.153-.07-.162-.074-.172-.078-.181-.081-.189-.085-.2-.088-.2-.091-.212-.094-.219-.1-.225-.1-.231-.1-.236-.1-.241-.106-.246-.107-.25-.109-.253-.11-.256-.111-.259-.112-.261-.113-.263-.113-.264-.114-.265-.114-.266-.114-.266-.114-.265-.113-.264-.113-.263-.112-.261-.111-.259-.11-.256-.109-.253-.107-.25-.106-.246-.1-.241-.1-.236-.1-.231-.1-.225-.094-.219-.091-.212-.088-.2-.085-.2-.081-.189-.077-.181-.074-.172-.07-.162-.066-.152-.061-.142-.056-.131-.052-.12-.047-.108-.041-.1-.036-.084-.03-.071-.025-.057-.019-.043-.013-.029-.007-.016a.986.986,0,0,1,.905-1.375h1.221a1.971,1.971,0,0,1,1.822,1.218l3.151,7.617a.141.141,0,0,0,.26,0l3.174-7.622a1.971,1.971,0,0,1,1.82-1.214Z" transform="translate(-314.122 -764.225)" fill="#fff"/>
        </g>
      </g>
      <g id="Group_72" data-name="Group 72" transform="translate(181.061 744)">
        <path id="Path_153" data-name="Path 153" d="M470.765,776.508a6.612,6.612,0,0,1-2.644-2.469,7.223,7.223,0,0,1,0-7.169,6.618,6.618,0,0,1,2.644-2.469,8.627,8.627,0,0,1,7.632,0,6.641,6.641,0,0,1,2.632,2.469,7.221,7.221,0,0,1,0,7.169,6.635,6.635,0,0,1-2.632,2.469,8.629,8.629,0,0,1-7.632,0Zm6.291-3.333a4.314,4.314,0,0,0,0-5.439,3.256,3.256,0,0,0-2.468-1.015,3.3,3.3,0,0,0-2.482,1.015,4.272,4.272,0,0,0,0,5.439,3.3,3.3,0,0,0,2.482,1.015A3.256,3.256,0,0,0,477.056,773.175Z" transform="translate(-467.168 -758.017)" fill="#fff"/>
        <path id="Path_154" data-name="Path 154" d="M550.315,765a6.078,6.078,0,0,1,1.491,4.474v6.981a.739.739,0,0,1-.739.739h-1.221a1.95,1.95,0,0,1-1.95-1.95v-5.168a3.656,3.656,0,0,0-.664-2.394,2.337,2.337,0,0,0-1.893-.79,2.789,2.789,0,0,0-2.181.89,3.834,3.834,0,0,0-.8,2.644v6.028a.739.739,0,0,1-.739.739H540.4a1.95,1.95,0,0,1-1.95-1.95v-5.168q0-3.183-2.557-3.183a2.759,2.759,0,0,0-2.156.89,3.834,3.834,0,0,0-.8,2.644v6.028a.739.739,0,0,1-.739.739h-1.638a1.533,1.533,0,0,1-1.533-1.533V764.452a.739.739,0,0,1,.74-.739h1.462a1.533,1.533,0,0,1,1.533,1.533h0a.008.008,0,0,0,.014.005,4.943,4.943,0,0,1,1.828-1.288,6.2,6.2,0,0,1,2.393-.451,5.8,5.8,0,0,1,2.582.564,4.568,4.568,0,0,1,1.767,1.511.117.117,0,0,0,.187.008,5.54,5.54,0,0,1,1.994-1.506,6.6,6.6,0,0,1,2.77-.577A5.437,5.437,0,0,1,550.315,765Z" transform="translate(-511.602 -758.017)" fill="#fff"/>
        <path id="Path_155" data-name="Path 155" d="M622.549,747.376a2.072,2.072,0,0,1,0-2.809,1.892,1.892,0,0,1,1.422-.567,1.934,1.934,0,0,1,1.422.544,1.836,1.836,0,0,1,.549,1.36,2.037,2.037,0,0,1-.549,1.461,2.054,2.054,0,0,1-2.845.011Zm.319,2.32h1.178a1.971,1.971,0,0,1,1.971,1.971V762.42a.76.76,0,0,1-.76.76h-1.178a1.971,1.971,0,0,1-1.971-1.971V750.456A.76.76,0,0,1,622.868,749.7Z" transform="translate(-578.395 -744)" fill="#fff"/>
        <path id="Path_156" data-name="Path 156" d="M658.767,771.558h-9.039a.142.142,0,0,0-.138.177,3.154,3.154,0,0,0,1.26,1.8,4.314,4.314,0,0,0,2.557.727,5.17,5.17,0,0,0,1.867-.313q.167-.064.33-.144a1.99,1.99,0,0,1,2.35.415l.423.459a.766.766,0,0,1-.067,1.1,7.333,7.333,0,0,1-5,1.618,8.8,8.8,0,0,1-4.036-.89,6.518,6.518,0,0,1-2.707-2.469,6.8,6.8,0,0,1-.953-3.584,6.9,6.9,0,0,1,.94-3.572,6.587,6.587,0,0,1,2.582-2.481,7.992,7.992,0,0,1,7.256-.037,6.225,6.225,0,0,1,2.519,2.444,7.288,7.288,0,0,1,.915,3.7v0A1.056,1.056,0,0,1,658.767,771.558Zm-8.168-4.336a3.154,3.154,0,0,0-1.074,1.887.143.143,0,0,0,.141.168h6.3a.143.143,0,0,0,.141-.169,3.192,3.192,0,0,0-1.073-1.874,3.3,3.3,0,0,0-2.205-.764A3.366,3.366,0,0,0,650.6,767.222Z" transform="translate(-595.357 -758.017)" fill="#fff"/>
        <path id="Path_157" data-name="Path 157" d="M703.832,776.984a10.22,10.22,0,0,1-1.9-.673.761.761,0,0,1-.355-1.005l.177-.38a1.964,1.964,0,0,1,2.423-1.034q.283.1.588.185a9.12,9.12,0,0,0,2.506.364q2.481,0,2.481-1.228a.869.869,0,0,0-.677-.827,10.044,10.044,0,0,0-2.08-.426,20,20,0,0,1-2.732-.576,4.236,4.236,0,0,1-1.867-1.153,3.278,3.278,0,0,1-.79-2.356,3.691,3.691,0,0,1,.74-2.269,4.758,4.758,0,0,1,2.156-1.542,9.212,9.212,0,0,1,3.346-.551,13.139,13.139,0,0,1,2.845.313,9.351,9.351,0,0,1,1.64.51.762.762,0,0,1,.39,1.024l-.186.4a1.953,1.953,0,0,1-2.328,1.058,7.978,7.978,0,0,0-2.361-.346,3.956,3.956,0,0,0-1.88.351,1.032,1.032,0,0,0-.627.9.9.9,0,0,0,.677.878,12.013,12.013,0,0,0,2.156.476,23.134,23.134,0,0,1,2.707.589,4.068,4.068,0,0,1,1.83,1.141,3.238,3.238,0,0,1,.777,2.306,3.561,3.561,0,0,1-.752,2.231,4.8,4.8,0,0,1-2.193,1.516,9.77,9.77,0,0,1-3.422.539A13.1,13.1,0,0,1,703.832,776.984Z" transform="translate(-635.507 -758.017)" fill="#fff"/>
      </g>
      <g id="Group_73" data-name="Group 73" transform="translate(68.898 745.887)">
        <path id="Path_158" data-name="Path 158" d="M84.989,752.671v14.813a.76.76,0,0,1-.76.76H82.9a1.971,1.971,0,0,1-1.971-1.971v-4.941a.282.282,0,0,0-.282-.282H73.24a.282.282,0,0,0-.282.282v6.152a.76.76,0,0,1-.76.76H70.869a1.971,1.971,0,0,1-1.971-1.971V751.46a.76.76,0,0,1,.76-.76h1.329a1.971,1.971,0,0,1,1.971,1.971v4.665a.282.282,0,0,0,.282.282h7.407a.282.282,0,0,0,.282-.282V751.46a.76.76,0,0,1,.76-.76h1.329A1.971,1.971,0,0,1,84.989,752.671Z" transform="translate(-68.898 -750.7)" fill="#fff"/>
      </g>
      <g id="Group_74" data-name="Group 74" transform="translate(162.397 745.605)">
        <path id="Path_159" data-name="Path 159" d="M416.99,751.671v14.813a.76.76,0,0,1-.76.76H414.9a1.971,1.971,0,0,1-1.971-1.971v-4.941a.282.282,0,0,0-.282-.282H405.24a.282.282,0,0,0-.282.282v6.152a.76.76,0,0,1-.76.76h-1.329a1.971,1.971,0,0,1-1.971-1.971V750.46a.76.76,0,0,1,.76-.76h1.329a1.971,1.971,0,0,1,1.971,1.971v4.665a.282.282,0,0,0,.282.282h7.407a.282.282,0,0,0,.282-.282V750.46a.76.76,0,0,1,.76-.76h1.329A1.971,1.971,0,0,1,416.99,751.671Z" transform="translate(-400.898 -749.7)" fill="#fff"/>
      </g>
    </g>
    <rect id="Rectangle_205" data-name="Rectangle 205" width="375" height="351" fill="#d3dde7"/>
    <text id="SoMe_" data-name="SoMe " transform="translate(0 113)" fill="#85aacf" font-size="100" font-family="Roboto-Bold, Roboto" font-weight="700"><tspan x="57.666" y="95">SoMe</tspan><tspan y="95" font-size="50" font-family="Roboto-Regular, Roboto" font-weight="400"> </tspan></text>
  </g>
</svg>
