<svg xmlns="http://www.w3.org/2000/svg" xmlns:xlink="http://www.w3.org/1999/xlink" width="375" height="351" viewBox="0 0 375 351">
  <defs>
    <linearGradient id="linear-gradient" x2="1" y2="1" gradientUnits="objectBoundingBox">
      <stop offset="0" stop-color="#ffb828"/>
      <stop offset="1" stop-color="#ffdc6b"/>
    </linearGradient>
    <clipPath id="clip-project1">
      <rect width="375" height="351"/>
    </clipPath>
  </defs>
  <g id="project1" clip-path="url(#clip-project1)">
    <rect width="375" height="351" fill="#fff"/>
    <path id="Path_258" data-name="Path 258" d="M0,201.137H375V552.431H0Z" transform="translate(0 -201.474)" fill="url(#linear-gradient)"/>
    <g id="Logo2" transform="translate(0 -256)">
      <g id="Group_84" data-name="Group 84" transform="translate(-962.898 -188.7)">
        <g id="Group_82" data-name="Group 82" transform="translate(1079.898 534.7)">
          <path id="Path_171" data-name="Path 171" d="M1160.28,544.548v74a3.8,3.8,0,0,1-3.8,3.8h-6.637A9.847,9.847,0,0,1,1140,612.5v-24.68a1.407,1.407,0,0,0-1.407-1.407h-37a1.407,1.407,0,0,0-1.407,1.407v30.729a3.8,3.8,0,0,1-3.8,3.8h-6.637a9.848,9.848,0,0,1-9.848-9.848v-74a3.8,3.8,0,0,1,3.8-3.8h6.637a9.848,9.848,0,0,1,9.848,9.848v23.3a1.407,1.407,0,0,0,1.407,1.407h37A1.407,1.407,0,0,0,1140,567.85V538.5a3.8,3.8,0,0,1,3.8-3.8h6.637A9.848,9.848,0,0,1,1160.28,544.548Z" transform="translate(-1079.898 -534.7)" fill="#fff"/>
        </g>
        <g id="Group_83" data-name="Group 83" transform="translate(1140.39 567.056)">
          <path id="Path_172" data-name="Path 172" d="M1203.28,567.548v74a3.8,3.8,0,0,1-3.8,3.8h-6.637A9.848,9.848,0,0,1,1183,635.5v-24.68a1.407,1.407,0,0,0-1.407-1.407h-37a1.407,1.407,0,0,0-1.407,1.407v30.729a3.8,3.8,0,0,1-3.8,3.8h-6.637a9.848,9.848,0,0,1-9.848-9.848v-74a3.8,3.8,0,0,1,3.8-3.8h6.637a9.848,9.848,0,0,1,9.848,9.848v23.3a1.407,1.407,0,0,0,1.407,1.407h37A1.407,1.407,0,0,0,1183,590.85V561.5a3.8,3.8,0,0,1,3.8-3.8h6.637A9.848,9.848,0,0,1,1203.28,567.548Z" transform="translate(-1122.898 -557.7)" fill="#fff"/>
        </g>
      </g>
    </g>
    <g id="Group_86" data-name="Group 86" transform="translate(10.021 -499)">
      <g id="Group_71" data-name="Group 71" transform="translate(92.896 744.738)">
        <path id="Path_149" data-name="Path 149" d="M140.723,779.975a8.376,8.376,0,0,1-3.35-3.127,9.147,9.147,0,0,1,0-9.081,8.384,8.384,0,0,1,3.35-3.127,10.928,10.928,0,0,1,9.668,0,8.414,8.414,0,0,1,3.334,3.127,9.147,9.147,0,0,1,0,9.081,8.4,8.4,0,0,1-3.334,3.127,10.931,10.931,0,0,1-9.668,0Zm7.97-4.223a5.466,5.466,0,0,0,0-6.89,4.126,4.126,0,0,0-3.128-1.286,4.177,4.177,0,0,0-3.143,1.286,5.411,5.411,0,0,0,0,6.89,4.177,4.177,0,0,0,3.143,1.286A4.127,4.127,0,0,0,148.693,775.752Z" transform="translate(-136.167 -757.289)" fill="#fff"/>
        <path id="Path_150" data-name="Path 150" d="M212.453,753.387a7.873,7.873,0,0,1,3.064,3.08,10.161,10.161,0,0,1,0,9.24,7.871,7.871,0,0,1-3.064,3.08,8.706,8.706,0,0,1-4.334,1.1A6.707,6.707,0,0,1,203.055,768a.177.177,0,0,0-.3.126v.541a.963.963,0,0,1-.963.963h-1.27a2.5,2.5,0,0,1-2.5-2.5v-20.1a.963.963,0,0,1,.963-.963h1.493a2.5,2.5,0,0,1,2.5,2.5v5.352a.177.177,0,0,0,.3.131,6.7,6.7,0,0,1,4.846-1.757A8.706,8.706,0,0,1,212.453,753.387Zm-2.064,11.145a5.465,5.465,0,0,0,0-6.89,4.446,4.446,0,0,0-6.255,0,5.467,5.467,0,0,0,0,6.89,4.447,4.447,0,0,0,6.255,0Z" transform="translate(-175.955 -746.068)" fill="#fff"/>
        <path id="Path_151" data-name="Path 151" d="M273.863,753.387a7.871,7.871,0,0,1,3.064,3.08,10.161,10.161,0,0,1,0,9.24,7.868,7.868,0,0,1-3.064,3.08,8.705,8.705,0,0,1-4.334,1.1A6.707,6.707,0,0,1,264.465,768a.177.177,0,0,0-.3.126v.541a.963.963,0,0,1-.963.963h-1.27a2.5,2.5,0,0,1-2.5-2.5v-20.1a.963.963,0,0,1,.963-.963h1.492a2.5,2.5,0,0,1,2.5,2.5v5.352a.178.178,0,0,0,.3.131,6.7,6.7,0,0,1,4.845-1.757A8.705,8.705,0,0,1,273.863,753.387ZM271.8,764.531a5.466,5.466,0,0,0,0-6.89,4.446,4.446,0,0,0-6.255,0,5.468,5.468,0,0,0,0,6.89,4.447,4.447,0,0,0,6.255,0Z" transform="translate(-215.457 -746.068)" fill="#fff"/>
        <g id="Group_70" data-name="Group 70" transform="translate(63.486 6.478)">
          <path id="Path_152" data-name="Path 152" d="M331.109,764.225a1.249,1.249,0,0,1,1.149,1.737l-6.976,16.392a8.924,8.924,0,0,1-2.905,4.16,7.119,7.119,0,0,1-4.175,1.206,8.694,8.694,0,0,1-2.635-.412,2.073,2.073,0,0,1-1.214-2.922l.4-.774a.953.953,0,0,1,1.292-.418,4.516,4.516,0,0,0,.525.24,4.1,4.1,0,0,0,1.476.286,2.618,2.618,0,0,0,1.651-.493,4.175,4.175,0,0,0,1.143-1.635l.03-.075c.016-.039.04-.071.018-.122l-.009-.021-.024-.056-.031-.073-.039-.09-.046-.107-.052-.122-.059-.138-.066-.152-.072-.167-.078-.18-.083-.193-.089-.206-.094-.218-.1-.229-.1-.24-.107-.25-.111-.259-.116-.269-.119-.277-.123-.285-.126-.292-.128-.3-.131-.305-.134-.311-.136-.316-.138-.321-.14-.324-.141-.328-.142-.331-.143-.333-.144-.335-.145-.336-.145-.336-.145-.336-.144-.336-.144-.335-.143-.333-.142-.331-.141-.328-.139-.325-.138-.32-.136-.316-.134-.311-.131-.305-.129-.3-.126-.292-.122-.285-.119-.277-.116-.268-.111-.259-.107-.25-.1-.239-.1-.229-.093-.217-.088-.206-.083-.193-.077-.18-.071-.166-.065-.152-.059-.137-.052-.122-.046-.106-.039-.09-.031-.073-.024-.055-.016-.037-.009-.02a1.249,1.249,0,0,1,1.147-1.742h1.547a2.5,2.5,0,0,1,2.308,1.543l3.992,9.649a.178.178,0,0,0,.329,0l4.021-9.655a2.5,2.5,0,0,1,2.305-1.537Z" transform="translate(-314.122 -764.225)" fill="#fff"/>
        </g>
      </g>
      <g id="Group_72" data-name="Group 72" transform="translate(210.982 744)">
        <path id="Path_153" data-name="Path 153" d="M471.724,779.975a8.376,8.376,0,0,1-3.35-3.127,9.149,9.149,0,0,1,0-9.081,8.384,8.384,0,0,1,3.35-3.127,10.929,10.929,0,0,1,9.668,0,8.414,8.414,0,0,1,3.334,3.127,9.147,9.147,0,0,1,0,9.081,8.4,8.4,0,0,1-3.334,3.127,10.931,10.931,0,0,1-9.668,0Zm7.969-4.223a5.465,5.465,0,0,0,0-6.89,4.125,4.125,0,0,0-3.127-1.286,4.177,4.177,0,0,0-3.144,1.286,5.411,5.411,0,0,0,0,6.89,4.177,4.177,0,0,0,3.144,1.286A4.125,4.125,0,0,0,479.693,775.752Z" transform="translate(-467.168 -756.551)" fill="#fff"/>
        <path id="Path_154" data-name="Path 154" d="M555.995,765.4q1.888,1.89,1.889,5.667v8.843a.936.936,0,0,1-.936.936H555.4a2.471,2.471,0,0,1-2.471-2.471v-6.546a4.632,4.632,0,0,0-.841-3.032,2.961,2.961,0,0,0-2.4-1,3.533,3.533,0,0,0-2.762,1.127,4.857,4.857,0,0,0-1.016,3.35v7.636a.936.936,0,0,1-.937.936h-1.546a2.471,2.471,0,0,1-2.47-2.471v-6.546q0-4.032-3.239-4.033a3.5,3.5,0,0,0-2.731,1.127,4.857,4.857,0,0,0-1.016,3.35v7.636a.936.936,0,0,1-.937.936h-2.075a1.942,1.942,0,0,1-1.942-1.942V764.7a.937.937,0,0,1,.937-.937h1.852a1.942,1.942,0,0,1,1.942,1.942h0a.01.01,0,0,0,.018.006,6.26,6.26,0,0,1,2.316-1.631,7.85,7.85,0,0,1,3.032-.572,7.343,7.343,0,0,1,3.27.715,5.786,5.786,0,0,1,2.238,1.914.148.148,0,0,0,.237.01,7.019,7.019,0,0,1,2.526-1.908,8.363,8.363,0,0,1,3.508-.731A6.888,6.888,0,0,1,555.995,765.4Z" transform="translate(-506.955 -756.551)" fill="#fff"/>
        <path id="Path_155" data-name="Path 155" d="M622.7,748.277a2.624,2.624,0,0,1,0-3.559,2.4,2.4,0,0,1,1.8-.718,2.45,2.45,0,0,1,1.8.689,2.325,2.325,0,0,1,.7,1.722,2.58,2.58,0,0,1-.7,1.851,2.6,2.6,0,0,1-3.6.014Zm.4,2.939h1.493a2.5,2.5,0,0,1,2.5,2.5v13.621a.963.963,0,0,1-.963.963h-1.493a2.5,2.5,0,0,1-2.5-2.5V752.179A.963.963,0,0,1,623.1,751.215Z" transform="translate(-566.763 -744)" fill="#fff"/>
        <path id="Path_156" data-name="Path 156" d="M662.276,773.7h-11.45a.18.18,0,0,0-.175.224,4,4,0,0,0,1.6,2.284,5.465,5.465,0,0,0,3.238.921,6.55,6.55,0,0,0,2.365-.4q.212-.082.418-.182a2.521,2.521,0,0,1,2.977.526l.536.582a.971.971,0,0,1-.085,1.391,9.289,9.289,0,0,1-6.337,2.05,11.148,11.148,0,0,1-5.112-1.127,8.256,8.256,0,0,1-3.429-3.127,8.613,8.613,0,0,1-1.207-4.54,8.734,8.734,0,0,1,1.191-4.525,8.344,8.344,0,0,1,3.27-3.143,10.124,10.124,0,0,1,9.192-.047,7.885,7.885,0,0,1,3.191,3.1,9.233,9.233,0,0,1,1.159,4.683v0A1.338,1.338,0,0,1,662.276,773.7Zm-10.346-5.493a4,4,0,0,0-1.36,2.39.181.181,0,0,0,.178.213h7.983a.181.181,0,0,0,.178-.214,4.044,4.044,0,0,0-1.359-2.374,4.176,4.176,0,0,0-2.794-.968A4.264,4.264,0,0,0,651.93,768.212Z" transform="translate(-581.951 -756.551)" fill="#fff"/>
        <path id="Path_157" data-name="Path 157" d="M704.454,780.579a12.945,12.945,0,0,1-2.413-.852.963.963,0,0,1-.45-1.273l.224-.482a2.487,2.487,0,0,1,3.069-1.31q.359.125.745.234a11.558,11.558,0,0,0,3.175.46q3.143,0,3.143-1.555a1.1,1.1,0,0,0-.857-1.048,12.724,12.724,0,0,0-2.635-.54,25.325,25.325,0,0,1-3.461-.73,5.366,5.366,0,0,1-2.366-1.461,4.152,4.152,0,0,1-1-2.984,4.676,4.676,0,0,1,.937-2.874,6.028,6.028,0,0,1,2.731-1.953,11.672,11.672,0,0,1,4.239-.7,16.649,16.649,0,0,1,3.6.4,11.855,11.855,0,0,1,2.077.646.965.965,0,0,1,.494,1.3l-.236.5a2.475,2.475,0,0,1-2.949,1.34,10.107,10.107,0,0,0-2.99-.438,5.011,5.011,0,0,0-2.381.444,1.308,1.308,0,0,0-.794,1.143,1.135,1.135,0,0,0,.857,1.112,15.223,15.223,0,0,0,2.731.6,29.287,29.287,0,0,1,3.429.746,5.153,5.153,0,0,1,2.318,1.445,4.1,4.1,0,0,1,.984,2.921,4.511,4.511,0,0,1-.953,2.826,6.079,6.079,0,0,1-2.778,1.92,12.376,12.376,0,0,1-4.334.683A16.593,16.593,0,0,1,704.454,780.579Z" transform="translate(-617.901 -756.551)" fill="#fff"/>
      </g>
      <g id="Group_73" data-name="Group 73" transform="translate(68.898 746.39)">
        <path id="Path_158" data-name="Path 158" d="M89.282,753.2v18.765a.963.963,0,0,1-.963.963H86.636a2.5,2.5,0,0,1-2.5-2.5V764.17a.357.357,0,0,0-.357-.357H74.4a.357.357,0,0,0-.357.357v7.793a.963.963,0,0,1-.963.963H71.4a2.5,2.5,0,0,1-2.5-2.5V751.663a.963.963,0,0,1,.963-.963h1.683a2.5,2.5,0,0,1,2.5,2.5v5.909a.357.357,0,0,0,.357.357h9.383a.357.357,0,0,0,.357-.357v-7.443a.963.963,0,0,1,.963-.963h1.683A2.5,2.5,0,0,1,89.282,753.2Z" transform="translate(-68.898 -750.7)" fill="#fff"/>
      </g>
      <g id="Group_74" data-name="Group 74" transform="translate(187.34 746.034)">
        <path id="Path_159" data-name="Path 159" d="M421.282,752.2v18.765a.963.963,0,0,1-.963.963h-1.683a2.5,2.5,0,0,1-2.5-2.5V763.17a.357.357,0,0,0-.357-.357H406.4a.357.357,0,0,0-.357.357v7.793a.963.963,0,0,1-.963.963H403.4a2.5,2.5,0,0,1-2.5-2.5V750.663a.963.963,0,0,1,.963-.963h1.683a2.5,2.5,0,0,1,2.5,2.5v5.909a.357.357,0,0,0,.357.357h9.383a.357.357,0,0,0,.357-.357v-7.443a.963.963,0,0,1,.963-.963h1.683A2.5,2.5,0,0,1,421.282,752.2Z" transform="translate(-400.898 -749.7)" fill="#fff"/>
      </g>
    </g>
  </g>
</svg>
